<mxfile host="app.diagrams.net" agent="Mozilla/5.0 (Windows NT 10.0; Win64; x64) AppleWebKit/537.36 (KHTML, like Gecko) Chrome/131.0.0.0 Safari/537.36" version="25.0.1">
  <diagram name="Page-1" id="hpgmYD3lzxTVLDo37Bfv">
    <mxGraphModel dx="794" dy="412" grid="1" gridSize="10" guides="1" tooltips="1" connect="1" arrows="1" fold="1" page="1" pageScale="1" pageWidth="850" pageHeight="1100" math="0" shadow="0">
      <root>
        <mxCell id="0" />
        <mxCell id="1" parent="0" />
        <mxCell id="GsVNBTPH6mf2-OYeFXkW-1" value="Products" style="swimlane;fontStyle=0;childLayout=stackLayout;horizontal=1;startSize=30;horizontalStack=0;resizeParent=1;resizeParentMax=0;resizeLast=0;collapsible=1;marginBottom=0;whiteSpace=wrap;html=1;shadow=1;" vertex="1" parent="1">
          <mxGeometry x="20" y="130" width="370" height="280" as="geometry" />
        </mxCell>
        <mxCell id="GsVNBTPH6mf2-OYeFXkW-2" value="&lt;div style=&quot;line-height: 210%;&quot;&gt;&lt;div&gt;&lt;div&gt;ID : String&lt;/div&gt;&lt;div&gt;Name : String&lt;/div&gt;&lt;div&gt;SKU : String&lt;/div&gt;&lt;div&gt;Price : Double&lt;/div&gt;&lt;div&gt;Is Active : Boolean&lt;/div&gt;&lt;div&gt;Description : String&lt;/div&gt;&lt;div&gt;Category ID : String&lt;/div&gt;&lt;div&gt;Creation Date : ZonedDateTime&lt;/div&gt;&lt;div&gt;Last Modified Date : ZonedDateTime&lt;/div&gt;&lt;/div&gt;&lt;/div&gt;" style="text;strokeColor=none;fillColor=none;align=left;verticalAlign=middle;spacingLeft=4;spacingRight=4;overflow=hidden;points=[[0,0.5],[1,0.5]];portConstraint=eastwest;rotatable=0;whiteSpace=wrap;html=1;" vertex="1" parent="GsVNBTPH6mf2-OYeFXkW-1">
          <mxGeometry y="30" width="370" height="250" as="geometry" />
        </mxCell>
        <mxCell id="GsVNBTPH6mf2-OYeFXkW-3" value="&lt;font style=&quot;font-size: 20px;&quot;&gt;Product Service&lt;/font&gt;" style="rounded=0;whiteSpace=wrap;html=1;" vertex="1" parent="1">
          <mxGeometry x="220" y="20" width="400" height="60" as="geometry" />
        </mxCell>
        <mxCell id="GsVNBTPH6mf2-OYeFXkW-4" value="Categories" style="swimlane;fontStyle=0;childLayout=stackLayout;horizontal=1;startSize=30;horizontalStack=0;resizeParent=1;resizeParentMax=0;resizeLast=0;collapsible=1;marginBottom=0;whiteSpace=wrap;html=1;shadow=1;" vertex="1" parent="1">
          <mxGeometry x="410" y="170" width="370" height="200" as="geometry" />
        </mxCell>
        <mxCell id="GsVNBTPH6mf2-OYeFXkW-5" value="&lt;div style=&quot;line-height: 210%;&quot;&gt;&lt;div&gt;ID: String&lt;/div&gt;&lt;div&gt;Name: String&lt;/div&gt;&lt;div&gt;Description: String&lt;/div&gt;&lt;div&gt;Is Active: Boolean&lt;/div&gt;&lt;div&gt;Creation Date: ZonedDateTime&lt;/div&gt;&lt;div&gt;Last Modified Date: ZonedDateTime&lt;/div&gt;&lt;/div&gt;" style="text;strokeColor=none;fillColor=none;align=left;verticalAlign=middle;spacingLeft=4;spacingRight=4;overflow=hidden;points=[[0,0.5],[1,0.5]];portConstraint=eastwest;rotatable=0;whiteSpace=wrap;html=1;" vertex="1" parent="GsVNBTPH6mf2-OYeFXkW-4">
          <mxGeometry y="30" width="370" height="170" as="geometry" />
        </mxCell>
      </root>
    </mxGraphModel>
  </diagram>
</mxfile>
